<svg xmlns="http://www.w3.org/2000/svg" width="1024" height="1024"><path d="M502.236 864.832c-3.561-4.313-12.271-15-19.356-23.752l-12.881-15.911 58.135-116.11c32.481-64.87 59.243-117.149 60.643-118.464l2.507-2.355 24.301 2.695c61.599 6.833 115.412 16.378 143.802 25.507l6.5 2.09 6.408-6.77c7.236-7.646 15.506-19.75 14.783-21.635-.264-.687-9.137-12.7-19.719-26.693a30986.852 30986.852 0 0 1-46.286-61.443c-51.087-67.998-59.447-76.97-82.186-88.213l-9-4.45-23 .598c-12.65.33-29.134.871-36.631 1.204l-13.631.605-15.87 23.617c-45.838 68.218-67.72 96.592-97.316 126.192-18.655 18.657-32.36 30.016-52.052 43.144-15.81 10.54-40.205 22.928-54.818 27.837l-10.318 3.466-3.182-3.539c-7.133-7.933-29.794-35.182-29.499-35.471.175-.172 3.242-1.065 6.817-1.986 15.628-4.025 37.267-13.644 53.307-23.696 18.644-11.685 32.509-22.733 50.572-40.298 20.727-20.155 37.108-39.779 61.764-73.991l12.239-16.982-8.691-4.518c-11.605-6.034-17.116-9.971-26.479-18.916-21.911-20.934-33.876-47.438-36.275-80.353-.635-8.715-.534-9.75.955-9.75 4.613 0 32.571 3.28 43.108 5.059 42.06 7.096 70.688 19.006 90.718 37.741l4.835 4.524 8.724-3.268c4.798-1.797 9.722-3.897 10.944-4.666l2.22-1.397-3.083-8.747c-9.354-26.53-26.35-56.8-43.231-76.989-31.536-37.717-76.183-63.464-120.218-69.326-12.741-1.696-41.412-.643-52.409 1.925-16.383 3.825-34.28 11.23-47.353 19.593-31.985 20.461-57.233 57.514-66.16 97.094-2.16 9.576-3.068 36.972-1.577 47.565.65 4.616 2.355 13.234 3.791 19.151 2.954 12.177 2.537 15.929-2.43 21.832-6.696 7.956-20.635 7.618-27.146-.66-7.748-9.85-17.462-38.197-20.193-58.928-1.73-13.124-.656-42.371 2-54.503 7.636-34.88 25.058-67.283 50.309-93.566 17.807-18.535 35.046-31.04 59.26-42.987 54.72-27 114.422-30.563 175.554-10.478 52.88 17.374 95.525 49.471 130.664 98.346 23.121 32.16 43.871 73.531 53.497 106.662l3.245 11.17 6.686 5.402c12.562 10.15 20.452 19.717 52.326 63.451 28.419 38.992 38.569 51.999 70.53 90.381 46.923 56.351 47.04 56.553 41.924 71.9-8.877 26.626-34.716 53.815-55.813 58.73-3.438.8-8.18 1.02-13.112.61l-7.727-.645-.6 4.384c-2.859 20.854-3.246 55.634-.737 66.112.524 2.185.762 4.161.53 4.393-1.79 1.791-30.444-12.286-40.968-20.128-24.332-18.132-39.5-44.851-39.5-69.581v-5.929l-4.25-.622c-9.8-1.436-47.532-5.588-50.847-5.596l-3.598-.01-12.304 26.25c-15.08 32.175-59.361 127.703-77.758 167.75-7.454 16.226-14.76 32.804-16.236 36.841l-2.683 7.34zm100.44-315.84c-21.014-26.015-25.263-32.443-27.739-41.961-11.065-42.543 33.488-77.59 73.424-57.758 3.011 1.495 8.2 5.418 11.531 8.718 15.796 15.648 19.922 38.935 10.454 59-3.753 7.953-43.253 56.5-45.971 56.5-1.291 0-8.332-7.948-21.7-24.499zm28.993-35.85c11.162-4.677 16.4-16.263 11.822-26.15-5.18-11.191-17.692-15.571-28.177-9.865-11.452 6.233-14.438 19.734-6.432 29.087 6.258 7.31 15.308 10.063 22.787 6.929z" style="fill:#000"/></svg>