<?xml version="1.0" encoding="UTF-8" standalone="no"?>
<svg
   viewBox="-1 -1 20 20"
   width="20"
   height="20"
   data-reactid=".0.1.1.$car-15=1svg33.0.0"
   version="1.1"
   id="svg193"
   sodipodi:docname="car.svg"
   inkscape:version="1.2.1 (9c6d41e, 2022-07-14)"
   xml:space="preserve"
   xmlns:inkscape="http://www.inkscape.org/namespaces/inkscape"
   xmlns:sodipodi="http://sodipodi.sourceforge.net/DTD/sodipodi-0.dtd"
   xmlns="http://www.w3.org/2000/svg"
   xmlns:svg="http://www.w3.org/2000/svg"><defs
     id="defs197" /><sodipodi:namedview
     id="namedview195"
     pagecolor="#ffffff"
     bordercolor="#666666"
     borderopacity="1.0"
     inkscape:showpageshadow="2"
     inkscape:pageopacity="0.0"
     inkscape:pagecheckerboard="0"
     inkscape:deskcolor="#d1d1d1"
     showgrid="false"
     inkscape:zoom="27.717594"
     inkscape:cx="10.877568"
     inkscape:cy="6.9089691"
     inkscape:window-width="1728"
     inkscape:window-height="1051"
     inkscape:window-x="0"
     inkscape:window-y="38"
     inkscape:window-maximized="1"
     inkscape:current-layer="svg193" /><path
     style="fill:#000000;stroke-width:0.0161405"
     d="M 3.0760191,14.660903 C 2.7466077,14.624551 2.4579072,14.3757 2.348815,14.034059 2.3255799,13.961286 2.3187595,13.860048 2.3109615,13.472318 l -0.00955,-0.472967 -0.09494,-0.03856 C 2.0735664,12.906821 1.9420623,12.800013 1.861959,12.680988 1.7852069,12.566951 1.756493,12.481651 1.7550834,12.363515 1.7545537,12.319137 1.7414426,11.796176 1.7260058,11.201397 1.7105462,10.60662 1.6902896,9.8076651 1.6810139,9.4259437 1.6716927,9.0442197 1.6598707,8.631961 1.6547782,8.5098123 L 1.645457,8.2877175 2.2490415,7.6624305 C 2.5810131,7.3185213 2.9164605,6.9699581 2.9944813,6.8878428 L 3.1363455,6.7385445 H 2.845683 c -0.2441974,0 -0.3072224,-0.005 -0.3942483,-0.031988 C 2.2597134,6.647333 2.096433,6.4928056 2.0247575,6.3027576 1.9880865,6.2054987 1.988382,5.9665394 2.0253121,5.8676528 2.0936298,5.6847298 2.2483845,5.5308889 2.426547,5.4687757 2.5032309,5.4420399 2.57314,5.4392432 3.1649502,5.4392432 H 3.8186395 L 3.925356,5.4898048 4.0320725,5.5403664 4.1536119,5.3122583 C 4.7776462,4.1409948 5.0129839,3.7056332 5.0620111,3.6317706 5.1342164,3.5229852 5.2215402,3.4435049 5.3312531,3.3867274 l 0.085323,-0.044151 0.4842161,-0.011367 c 0.2663181,-0.00613 1.9196272,-0.020462 3.6740214,-0.031579 l 3.1898084,-0.020233 0.05691,0.035171 c 0.158211,0.097782 0.293748,0.3146294 0.692399,1.1078095 0.31825,0.6332168 0.420938,0.8279845 0.516474,0.9796019 l 0.04772,0.075729 0.071,-0.0542 c 0.14955,-0.1141507 0.186539,-0.1201526 0.810893,-0.1314291 0.364305,-0.00659 0.602368,-0.0041 0.680064,0.00705 0.374579,0.0537 0.616898,0.3724708 0.56452,0.7426136 -0.02953,0.2086587 -0.1671,0.3925933 -0.367424,0.4912867 l -0.105989,0.052221 -0.41603,0.005 c -0.228817,0.00273 -0.416031,0.01023 -0.416031,0.016596 0,0.00637 0.114401,0.119948 0.254214,0.2524046 0.559537,0.5300743 1.352344,1.2909711 1.361745,1.3069331 0.0054,0.00932 0.0034,0.9502674 -0.0046,2.0909969 -0.01569,2.245762 -0.01205,2.163592 -0.104193,2.353247 -0.0564,0.116242 -0.1967,0.263654 -0.304473,0.319968 l -0.08891,0.04647 -6.02e-4,0.355091 c -7.21e-4,0.427802 -0.01933,0.554164 -0.106626,0.720965 -0.07989,0.152823 -0.237124,0.310586 -0.379243,0.380551 -0.208386,0.102579 -0.207363,0.102511 -1.406894,0.09746 l -1.084644,-0.0046 -0.10492,-0.03749 c -0.220754,-0.07891 -0.39998,-0.232821 -0.499577,-0.429041 -0.08731,-0.171989 -0.09721,-0.238314 -0.09744,-0.651232 l -1.92e-4,-0.375309 -3.1675736,0.0041 -3.1675732,0.0041 -0.00818,0.476143 c -0.0075,0.439831 -0.010913,0.483345 -0.043719,0.570542 -0.1020786,0.271299 -0.3534329,0.493196 -0.6340421,0.559731 -0.067772,0.01614 -0.3311734,0.02138 -1.1136931,0.02251 -0.5637079,7.46e-4 -1.0685809,-0.0034 -1.1219413,-0.0094 z m 4.1426827,-2.261686 c 1.024296,-1.020608 1.8366891,-1.280701 2.7063124,-0.866444 0.3895328,0.18556 0.8845348,0.581397 1.2565798,1.004853 l 0.09626,0.109558 0.362025,-0.10392 0.362024,-0.10392 0.140296,-0.328438 c 0.07716,-0.18065 0.140704,-0.34062 0.141227,-0.355504 0.0011,-0.03331 -0.56655,-0.607127 -0.765743,-0.774001 C 10.402889,10.047496 9.3225526,9.7752069 8.1975967,10.144608 7.9760021,10.217383 7.619334,10.384977 7.3937836,10.522336 6.9875905,10.769698 6.4817718,11.189902 6.121946,11.578903 l -0.1493212,0.161417 0.1571192,0.314745 0.1571191,0.314743 0.145911,0.06047 c 0.080253,0.03326 0.2294267,0.09853 0.3315167,0.145025 0.1020785,0.04652 0.1867197,0.08507 0.1880837,0.08569 0.00135,6.28e-4 0.1211984,-0.117174 0.2663182,-0.261773 z M 4.1091861,11.258075 c 0.3936186,-0.04172 0.73259,-0.194609 0.9982443,-0.45024 0.192608,-0.185332 0.3003884,-0.360319 0.3759015,-0.610253 0.036353,-0.120288 0.04306,-0.173192 0.043673,-0.3439137 C 5.5279191,9.6043557 5.5006103,9.4841716 5.3931664,9.2645413 5.2971352,9.0682276 5.1754366,8.9180106 5.0001615,8.7794089 4.6965767,8.5393515 4.3444306,8.417164 3.9561752,8.417164 c -0.998374,0 -1.7510229,0.8060638 -1.5693365,1.680712 0.1389541,0.668964 0.7566296,1.143202 1.5286528,1.173685 0.026623,10e-4 0.1137869,-0.005 0.1936765,-0.01342 z m 10.4703129,-0.06227 c 0.299809,-0.07964 0.537047,-0.207522 0.736577,-0.397055 0.357592,-0.339675 0.503041,-0.78356 0.407863,-1.2447144 C 15.667969,9.2828011 15.534468,9.0514807 15.311913,8.840078 15.043054,8.5846884 14.737395,8.447894 14.327623,8.3995669 c -0.359004,-0.042332 -0.814134,0.0705 -1.118071,0.277215 -0.114264,0.077707 -0.32198,0.2832078 -0.396349,0.3921112 -0.249688,0.3656346 -0.302941,0.8056952 -0.147593,1.2195679 0.161575,0.430431 0.592001,0.791366 1.07945,0.90517 0.190902,0.04456 0.20493,0.04576 0.468075,0.04026 0.179649,-0.0038 0.274158,-0.01364 0.366356,-0.03809 z M 8.8141422,6.5766282 C 12.147716,6.5545757 12.936687,6.5413668 13.067165,6.5057643 13.378909,6.4206686 13.494188,6.2773858 13.474422,5.9995365 13.466919,5.8953664 13.441434,5.809202 13.317667,5.4715334 13.236322,5.2495977 13.13347,4.9663353 13.089127,4.8420541 12.890971,4.2867444 12.714518,4.0453979 12.445763,3.9621277 12.341888,3.9299354 12.309014,3.9296627 9.0962678,3.933914 L 5.8516856,3.938234 5.7443325,3.991092 C 5.6106074,4.0569312 5.5039705,4.1703317 5.3956649,4.361862 5.3517188,4.439569 5.1573558,4.811326 4.963743,5.1879686 4.5577453,5.9777749 4.5603075,5.9699724 4.6481473,6.1483984 c 0.090893,0.1846281 0.3210246,0.3550107 0.5666611,0.4195202 0.1143781,0.030033 0.3191718,0.030533 3.5993315,0.00886 z M 6.5474432,6.2624104 c -0.028918,-0.069204 -0.03824,-0.070318 -0.060247,-0.00727 -0.01546,0.044583 -0.022053,0.048288 -0.067749,0.038762 C 6.304114,6.2698898 6.2639646,6.213531 6.2639646,6.0756681 c 0,-0.057791 -0.00864,-0.088393 -0.031874,-0.1115135 C 6.2005578,5.9326216 6.1806878,5.9257558 6.0698564,5.9081363 5.9978785,5.896769 5.9047573,5.8205397 5.8514219,5.7295329 5.8122728,5.6627386 5.8114544,5.6566002 5.8352802,5.6104717 5.8718148,5.5398351 5.8665859,5.4770874 5.8105904,5.3140118 5.6510614,4.8493633 5.8107041,4.4281584 6.2187092,4.2372806 6.4092938,4.1481153 6.5801151,4.1169234 6.8123495,4.1289045 c 0.2162293,0.01114 0.3174848,0.035852 0.48458,0.1181975 0.2200259,0.1084443 0.3890171,0.3216157 0.4367985,0.5509833 0.0286,0.1372945 0.00978,0.3314553 -0.04863,0.5015673 C 7.630763,5.4578858 7.623965,5.5388052 7.659249,5.6070432 7.680392,5.6479202 7.679483,5.6586052 7.649699,5.7185794 7.599274,5.8204989 7.5098133,5.8926131 7.4164193,5.9066177 7.2601413,5.9300577 7.2405896,5.9523827 7.2273125,6.1225514 7.2193525,6.2251529 7.1747495,6.2786702 7.083675,6.2951756 7.028816,6.3051786 7.022996,6.3024456 7.013334,6.2640066 7.001285,6.2158766 6.957862,6.2067156 6.957862,6.2524116 c 0,0.04597 -0.039399,0.069182 -0.1078305,0.063544 -0.049766,-0.0041 -0.062656,-0.012049 -0.066817,-0.0414 -0.0075,-0.053176 -0.067476,-0.049607 -0.067476,0.0041 0,0.037034 -0.00591,0.040354 -0.07241,0.040354 -0.067499,0 -0.074024,-0.00386 -0.096008,-0.056495 z M 6.6997425,5.9395989 c 0.026099,-0.031442 0.050903,-0.030533 0.1111952,0.0041 0.047993,0.027509 0.050175,0.027327 0.085119,-0.0075 0.035534,-0.035534 0.035603,-0.03658 0.00796,-0.123972 C 6.8671834,5.6953378 6.7818373,5.568508 6.7400511,5.568508 c -0.037285,0 -0.1050569,0.1125593 -0.1480026,0.2457752 -0.02594,0.080435 -0.025827,0.085891 0.00227,0.1170152 0.034988,0.038649 0.077343,0.042059 0.1052388,0.00842 z M 6.4293344,5.5666597 C 6.592501,5.4519861 6.6350147,5.2154025 6.5045861,5.1479534 6.445476,5.117398 6.3289382,5.1181482 6.216588,5.149829 6.0720412,5.1905922 6.0218431,5.2475198 6.0218431,5.3707188 c 0,0.1730789 0.085869,0.2602481 0.2462253,0.2499584 0.070818,-0.00454 0.1091491,-0.017279 0.1612795,-0.054017 z m 0.9452453,0.025508 c 0.064043,-0.039059 0.099896,-0.1172199 0.099896,-0.2177752 0,-0.1071712 -0.03292,-0.1585515 -0.1277232,-0.1993374 -0.1618707,-0.069637 -0.3572137,-0.060725 -0.4129385,0.01887 -0.048106,0.068682 -0.02228,0.206135 0.057745,0.3078999 0.047151,0.059929 0.1826047,0.1227216 0.2650223,0.122858 0.036489,4.78e-5 0.087778,-0.014096 0.1179929,-0.032488 z"
     id="path467" /></svg>
