<?xml version="1.0" encoding="UTF-8" standalone="no"?>
<svg
   viewBox="-1 -1 20 20"
   width="20"
   height="20"
   data-reactid=".0.1.1.$car-15=1svg33.0.0"
   version="1.1"
   id="svg193"
   sodipodi:docname="car.svg"
   inkscape:version="1.2.1 (9c6d41e, 2022-07-14)"
   xmlns:inkscape="http://www.inkscape.org/namespaces/inkscape"
   xmlns:sodipodi="http://sodipodi.sourceforge.net/DTD/sodipodi-0.dtd"
   xmlns="http://www.w3.org/2000/svg"
   xmlns:svg="http://www.w3.org/2000/svg">
  <defs
     id="defs197" />
  <sodipodi:namedview
     id="namedview195"
     pagecolor="#ffffff"
     bordercolor="#666666"
     borderopacity="1.0"
     inkscape:showpageshadow="2"
     inkscape:pageopacity="0.0"
     inkscape:pagecheckerboard="0"
     inkscape:deskcolor="#d1d1d1"
     showgrid="false"
     inkscape:zoom="28.91359"
     inkscape:cx="10.099057"
     inkscape:cy="11.050167"
     inkscape:window-width="1728"
     inkscape:window-height="1051"
     inkscape:window-x="0"
     inkscape:window-y="38"
     inkscape:window-maximized="1"
     inkscape:current-layer="svg193" />
  <path
     id="rect3418"
     style="fill:#2d2d2d;stroke-width:1.38564;stroke-linecap:round;paint-order:markers stroke fill"
     d="M 13.024604,2.8383787 5.6931792,2.8870924 C 5.2418477,2.8900423 5.0923656,3.3041991 4.8785765,3.7016951 L 4.0991559,5.1549897 C 3.9931232,5.0848868 3.8655541,5.0440304 3.72839,5.0440304 H 2.6729246 c -0.3716928,2e-7 -0.6711677,0.299475 -0.6711677,0.6711677 0,0.371693 0.2994749,0.6711678 0.6711677,0.6711677 H 3.181713 l -1.5290715,1.5859043 0.110959,4.0676009 c -0.058463,0.365396 0.2243449,0.675497 0.5764464,0.776714 -5.332e-4,0.01286 -0.0027,0.0249 -0.0027,0.03789 v 0.768594 c 0,0.504442 0.4075901,0.909325 0.9120302,0.909325 h 1.9647894 c 0.5044403,0 0.9093239,-0.404883 0.9093239,-0.909325 v -0.768594 h 6.4951706 v 0.622454 c 0,0.50444 0.404883,0.912031 0.909324,0.912031 h 1.96479 c 0.50444,0 0.91203,-0.407591 0.91203,-0.912031 v -0.681993 c 0.294689,-0.122053 0.498055,-0.414479 0.50067,-0.755064 l 0.03248,-4.18668 -1.686037,-1.6102612 h 0.695524 c 0.371692,0 0.671168,-0.2994747 0.671168,-0.6711677 0,-0.3716928 -0.299476,-0.6711677 -0.671168,-0.6711677 h -1.052767 c -0.183123,0 -0.350072,0.071298 -0.470901,0.1894426 L 13.839206,3.6529814 C 13.641841,3.247081 13.475935,2.8354273 13.024604,2.8383787 Z M 6.1234843,3.5095464 h 6.4221007 c 0.451341,0 0.660358,0.3904345 0.814602,0.8146026 l 0.384298,1.0554654 c 0.154244,0.424168 0.0974,0.8086806 -0.814603,0.8146027 L 5.5497442,6.2429308 C 5.0984117,6.2458616 4.526366,5.828481 4.7351415,5.4283281 L 5.3088816,4.324149 C 5.517657,3.9239962 5.6721424,3.5095464 6.1234843,3.5095464 Z M 14.510374,8.0859357 A 1.6293942,1.4616626 0 0 1 16.13958,9.5473491 1.6293942,1.4616626 0 0 1 14.510374,11.011469 1.6293942,1.4616626 0 0 1 12.881168,9.5473491 1.6293942,1.4616626 0 0 1 14.510374,8.0859357 Z M 4.01526,8.1102926 A 1.6293942,1.4616626 0 0 1 5.6444654,9.5717061 1.6293942,1.4616626 0 0 1 4.01526,11.033119 1.6293942,1.4616626 0 0 1 2.3860546,9.5717061 1.6293942,1.4616626 0 0 1 4.01526,8.1102926 Z m 5.3206277,1.6129675 c 1.1633533,-0.00934 2.2325933,0.6669459 3.2475843,1.8105289 l -1.033813,0.917443 C 10.672502,11.462948 9.9648303,11.103936 9.346713,11.108896 8.7285963,11.11386 8.0025181,11.496175 7.1139979,12.462057 L 6.0937147,11.522964 C 7.1136733,10.4142 8.172534,9.732602 9.3358877,9.7232601 Z" />
</svg>
