<?xml version="1.0" encoding="UTF-8" standalone="no"?>
<!-- Created with Inkscape (http://www.inkscape.org/) -->

<svg
   version="1.1"
   id="svg433"
   width="20"
   height="20"
   viewBox="0 0 20 20"
   sodipodi:docname="chevron_3.svg"
   inkscape:export-filename="public/symbols/chevron.svg"
   inkscape:export-xdpi="192"
   inkscape:export-ydpi="192"
   inkscape:version="1.2.1 (9c6d41e, 2022-07-14)"
   xmlns:inkscape="http://www.inkscape.org/namespaces/inkscape"
   xmlns:sodipodi="http://sodipodi.sourceforge.net/DTD/sodipodi-0.dtd"
   xmlns="http://www.w3.org/2000/svg"
   xmlns:svg="http://www.w3.org/2000/svg">
  <defs
     id="defs437" />
  <sodipodi:namedview
     id="namedview435"
     pagecolor="#ffffff"
     bordercolor="#666666"
     borderopacity="1.0"
     inkscape:showpageshadow="2"
     inkscape:pageopacity="0.0"
     inkscape:pagecheckerboard="0"
     inkscape:deskcolor="#d1d1d1"
     showgrid="false"
     inkscape:zoom="28.866454"
     inkscape:cx="10.254117"
     inkscape:cy="9.4400235"
     inkscape:window-width="1728"
     inkscape:window-height="1051"
     inkscape:window-x="0"
     inkscape:window-y="38"
     inkscape:window-maximized="1"
     inkscape:current-layer="g1465" />
  <g
     inkscape:groupmode="layer"
     inkscape:label="Image"
     id="g439">
    <g
       id="g1465"
       transform="matrix(0.08481373,0,0,0.08481373,-4.2006731,-22.797952)"
       style="stroke:none;stroke-width:11.7905;stroke-dasharray:none;stroke-opacity:1">
      <path
         id="path508"
         style="stroke:none;stroke-width:94.6779;stroke-dasharray:none;stroke-opacity:1;fill:#2d2d2d;stroke-linecap:round;paint-order:markers stroke fill"
         inkscape:label="path508"
         d="M 167.43366 319.32457 A 73.355225 73.355225 0 0 0 94.088186 392.67005 A 73.355225 73.355225 0 0 0 167.43366 466.03855 A 73.355225 73.355225 0 0 0 240.77913 392.67005 A 73.355225 73.355225 0 0 0 167.43366 319.32457 z M 167.50274 327.01606 C 169.75285 327.41708 173.12901 330.79932 185.16553 343.20503 C 201.17981 359.71049 203.31191 362.1946 203.31191 364.27602 C 203.31191 368.59393 198.37817 372.72779 194.51506 371.64511 C 193.49177 371.35832 188.99251 367.01485 180.46774 358.15047 C 173.56256 350.97021 167.66827 345.09336 167.3876 345.09336 C 167.10694 345.09336 161.78823 350.39894 155.57403 356.8839 C 142.61166 370.41102 141.14137 371.7142 138.50998 371.7142 C 133.73461 371.7142 130.01006 365.61049 132.2002 361.37444 C 133.3427 359.16467 163.69627 328.03104 165.33807 327.38452 C 166.11859 327.07716 166.75271 326.88239 167.50274 327.01606 z M 167.50274 368.83565 C 169.75286 369.23667 173.12902 372.6189 185.16553 385.02462 C 201.17982 401.53008 203.31191 404.01418 203.31191 406.09561 C 203.31191 410.4135 198.37818 414.54738 194.51506 413.4647 C 193.49178 413.17791 188.99252 408.83444 180.46774 399.97005 C 173.56257 392.7898 167.66827 386.91295 167.3876 386.91295 C 167.10694 386.91295 161.78824 392.21853 155.57403 398.70349 C 142.61167 412.23061 141.14137 413.53378 138.50998 413.53378 C 133.73462 413.53378 130.01007 407.43008 132.2002 403.19403 C 133.34271 400.98426 163.69627 369.85063 165.33807 369.2041 C 166.11859 368.89674 166.75271 368.70197 167.50274 368.83565 z M 166.25921 410.74735 C 166.9983 410.5595 168.12839 410.55068 168.76931 410.74735 C 170.01583 411.12978 198.08559 439.28171 201.3545 443.42465 C 202.84854 445.31818 203.31191 446.35111 203.31191 447.82308 C 203.31191 451.79255 199.42998 455.30508 195.57437 454.82371 C 193.77893 454.59955 192.46392 453.40902 180.62894 441.3521 L 167.66394 428.15682 L 154.90621 441.1909 C 147.88909 448.36686 141.51987 454.50767 140.74374 454.84674 C 138.85243 455.67299 138.1004 455.65386 136.32228 454.70857 C 131.56699 452.18054 130.21786 447.79791 133.00619 443.95431 C 135.74519 440.1787 164.86024 411.10292 166.25921 410.74735 z " />
    </g>
  </g>
</svg>
