<?xml version="1.0" encoding="UTF-8" standalone="no"?>
<!-- Created with Inkscape (http://www.inkscape.org/) -->

<svg
   version="1.1"
   id="svg433"
   width="20"
   height="20"
   viewBox="0 0 20 20"
   sodipodi:docname="chevron_1.svg"
   inkscape:export-filename="public/symbols/chevron.svg"
   inkscape:export-xdpi="192"
   inkscape:export-ydpi="192"
   inkscape:version="1.2.1 (9c6d41e, 2022-07-14)"
   xmlns:inkscape="http://www.inkscape.org/namespaces/inkscape"
   xmlns:sodipodi="http://sodipodi.sourceforge.net/DTD/sodipodi-0.dtd"
   xmlns="http://www.w3.org/2000/svg"
   xmlns:svg="http://www.w3.org/2000/svg">
  <defs
     id="defs437" />
  <sodipodi:namedview
     id="namedview435"
     pagecolor="#ffffff"
     bordercolor="#666666"
     borderopacity="1.0"
     inkscape:showpageshadow="2"
     inkscape:pageopacity="0.0"
     inkscape:pagecheckerboard="0"
     inkscape:deskcolor="#d1d1d1"
     showgrid="false"
     inkscape:zoom="25.398343"
     inkscape:cx="11.811794"
     inkscape:cy="11.792108"
     inkscape:window-width="1728"
     inkscape:window-height="1051"
     inkscape:window-x="0"
     inkscape:window-y="38"
     inkscape:window-maximized="1"
     inkscape:current-layer="g1465" />
  <g
     inkscape:groupmode="layer"
     inkscape:label="Image"
     id="g439">
    <g
       id="g1465"
       transform="matrix(0.08481373,0,0,0.08481373,-63.689629,-22.194768)"
       style="stroke:none;stroke-width:11.7905;stroke-dasharray:none;stroke-opacity:1">
      <path
         id="path508"
         style="stroke:none;stroke-width:94.6779;stroke-dasharray:none;stroke-opacity:1;fill:#2d2d2d;stroke-linecap:round;paint-order:markers stroke fill"
         d="M 868.8408 303.46191 A 73.355225 73.355225 0 0 0 795.49533 376.80739 A 73.355225 73.355225 0 0 0 868.8408 450.17589 A 73.355225 73.355225 0 0 0 942.18627 376.80739 A 73.355225 73.355225 0 0 0 868.8408 303.46191 z M 868.33417 347.44617 C 869.31076 347.21609 870.12477 347.40744 871.1897 347.67645 C 872.2928 347.95512 880.07793 355.49488 894.14902 369.92189 C 912.6181 388.85813 915.51883 392.0872 915.88783 394.10172 C 916.61943 398.09595 913.8691 402.80715 909.46291 405.1093 C 904.80561 407.5426 905.35947 407.95489 886.50359 388.64399 L 869.23228 370.95817 L 852.55972 387.95313 C 843.39203 397.30382 835.30233 405.26173 834.57453 405.63895 C 832.75203 406.58351 830.7935 406.4886 828.472 405.31655 C 825.95881 404.04769 822.41888 400.03003 821.88588 397.85535 C 820.94788 394.02778 822.34727 392.25497 844.31555 369.71464 C 861.03416 352.56077 865.40442 348.1364 868.33417 347.44617 z " />
    </g>
  </g>
</svg>
