<?xml version="1.0" encoding="UTF-8" standalone="no"?>
<!-- Created with Inkscape (http://www.inkscape.org/) -->

<svg
   version="1.1"
   id="svg433"
   width="20"
   height="20"
   viewBox="0 0 20 20"
   sodipodi:docname="chevron_4.svg"
   inkscape:export-filename="public/symbols/chevron.svg"
   inkscape:export-xdpi="192"
   inkscape:export-ydpi="192"
   inkscape:version="1.2.1 (9c6d41e, 2022-07-14)"
   xmlns:inkscape="http://www.inkscape.org/namespaces/inkscape"
   xmlns:sodipodi="http://sodipodi.sourceforge.net/DTD/sodipodi-0.dtd"
   xmlns="http://www.w3.org/2000/svg"
   xmlns:svg="http://www.w3.org/2000/svg">
  <defs
     id="defs437" />
  <sodipodi:namedview
     id="namedview435"
     pagecolor="#ffffff"
     bordercolor="#666666"
     borderopacity="1.0"
     inkscape:showpageshadow="2"
     inkscape:pageopacity="0.0"
     inkscape:pagecheckerboard="0"
     inkscape:deskcolor="#d1d1d1"
     showgrid="false"
     inkscape:zoom="25.62555"
     inkscape:cx="1.5609421"
     inkscape:cy="10.360753"
     inkscape:window-width="1728"
     inkscape:window-height="1051"
     inkscape:window-x="0"
     inkscape:window-y="38"
     inkscape:window-maximized="1"
     inkscape:current-layer="g1465" />
  <g
     inkscape:groupmode="layer"
     inkscape:label="Image"
     id="g439">
    <g
       id="g1465"
       transform="matrix(0.08481373,0,0,0.08481373,-4.2006731,-22.797952)"
       style="stroke:none;stroke-width:11.7905;stroke-dasharray:none;stroke-opacity:1">
      <path
         id="path508"
         style="stroke:none;stroke-width:94.6779;stroke-dasharray:none;stroke-opacity:1;fill:#2d2d2d;stroke-linecap:round;paint-order:markers stroke fill"
         d="M 167.43366 313.36022 A 73.355225 73.355225 0 0 0 94.088186 386.70569 A 73.355225 73.355225 0 0 0 167.43366 460.05116 A 73.355225 73.355225 0 0 0 240.77913 386.70569 A 73.355225 73.355225 0 0 0 167.43366 313.36022 z M 167.47972 324.50597 C 169.24533 324.80899 171.89802 327.35988 181.34282 336.73405 C 193.90888 349.20616 195.57437 351.07389 195.57437 352.64668 C 195.57437 355.90943 191.72018 359.03766 188.68888 358.21955 C 187.88594 358.00284 184.3475 354.73924 177.65827 348.041 C 172.23996 342.61537 167.63086 338.16181 167.41063 338.16181 C 167.1904 338.16181 163.00635 342.17354 158.13018 347.0738 C 147.95889 357.29535 146.79245 358.26561 144.72765 358.26561 C 140.98051 358.26561 138.08101 353.65987 139.79957 350.45898 C 140.69606 348.7892 164.51035 325.27085 165.79864 324.78231 C 166.4111 324.55006 166.89118 324.40496 167.47972 324.50597 z M 167.47972 352.87696 C 169.24533 353.17999 171.89802 355.7539 181.34282 365.12807 C 193.90888 377.60017 195.57437 379.46789 195.57437 381.0407 C 195.57437 384.30345 191.72018 387.40867 188.68888 386.59055 C 187.88594 386.37386 184.3475 383.11024 177.65827 376.41199 C 172.23996 370.98635 167.63086 366.55584 167.41063 366.55584 C 167.1904 366.55584 163.00635 370.56756 158.13018 375.46783 C 147.95889 385.68939 146.79245 386.65963 144.72765 386.65963 C 140.98051 386.65963 138.08101 382.05391 139.79957 378.853 C 140.69606 377.18324 164.51035 353.64184 165.79864 353.1533 C 166.4111 352.92105 166.89118 352.77595 167.47972 352.87696 z M 166.51252 381.34007 C 167.09307 381.1954 167.98952 381.18933 168.49297 381.34007 C 169.47207 381.63469 191.50984 403.31839 194.07752 406.51012 C 195.25109 407.96888 195.62043 408.76129 195.62043 409.89529 C 195.62043 412.95337 192.56949 415.6548 189.54093 415.28394 C 188.13065 415.11125 187.0927 414.20979 177.79644 404.92116 L 167.61789 394.7426 L 157.60053 404.78299 C 152.08867 410.31135 147.06443 415.04575 146.45478 415.30697 C 144.96919 415.94351 144.39721 415.9431 143.00052 415.21486 C 139.26528 413.26726 138.18508 409.88574 140.37528 406.92463 C 142.52673 404.01589 165.41364 381.61401 166.51252 381.34007 z M 166.51252 410.37889 C 167.09307 410.23422 167.98952 410.22815 168.49297 410.37889 C 169.47207 410.67351 191.50984 432.35721 194.07752 435.54894 C 195.25109 437.0077 195.62043 437.80013 195.62043 438.93411 C 195.62043 441.99219 192.56949 444.69363 189.54093 444.32276 C 188.13065 444.15007 187.0927 443.24861 177.79644 433.95998 L 167.61789 423.78142 L 157.60053 433.82181 C 152.08867 439.35016 147.06443 444.1076 146.45478 444.36882 C 144.96919 445.00536 144.39721 444.98192 143.00052 444.25368 C 139.26528 442.30607 138.18508 438.92456 140.37528 435.96345 C 142.52673 433.05471 165.41364 410.65283 166.51252 410.37889 z " />
    </g>
  </g>
</svg>
