<?xml version="1.0" encoding="UTF-8" standalone="no"?>
<!-- Created with Inkscape (http://www.inkscape.org/) -->

<svg
   version="1.1"
   id="svg433"
   width="20"
   height="20"
   viewBox="0 0 20 20"
   sodipodi:docname="chevron_2.svg"
   inkscape:export-filename="public/symbols/chevron.svg"
   inkscape:export-xdpi="192"
   inkscape:export-ydpi="192"
   inkscape:version="1.2.1 (9c6d41e, 2022-07-14)"
   xmlns:inkscape="http://www.inkscape.org/namespaces/inkscape"
   xmlns:sodipodi="http://sodipodi.sourceforge.net/DTD/sodipodi-0.dtd"
   xmlns="http://www.w3.org/2000/svg"
   xmlns:svg="http://www.w3.org/2000/svg">
  <defs
     id="defs437" />
  <sodipodi:namedview
     id="namedview435"
     pagecolor="#ffffff"
     bordercolor="#666666"
     borderopacity="1.0"
     inkscape:showpageshadow="2"
     inkscape:pageopacity="0.0"
     inkscape:pagecheckerboard="0"
     inkscape:deskcolor="#d1d1d1"
     showgrid="false"
     inkscape:zoom="18.517294"
     inkscape:cx="10.044664"
     inkscape:cy="14.337948"
     inkscape:window-width="1728"
     inkscape:window-height="1051"
     inkscape:window-x="0"
     inkscape:window-y="38"
     inkscape:window-maximized="1"
     inkscape:current-layer="g1465" />
  <g
     inkscape:groupmode="layer"
     inkscape:label="Image"
     id="g439">
    <g
       id="g1465"
       transform="matrix(0.08481373,0,0,0.08481373,-4.2006731,-22.797952)"
       style="stroke:none;stroke-width:11.7905;stroke-dasharray:none;stroke-opacity:1">
      <path
         id="path508"
         style="stroke:none;stroke-width:94.6779;stroke-dasharray:none;stroke-opacity:1;fill:#2d2d2d;stroke-linecap:round;paint-order:markers stroke fill"
         d="M 171.41757 313.47536 A 73.355225 73.355225 0 0 0 98.0721 386.82083 A 73.355225 73.355225 0 0 0 171.41757 460.16631 A 73.355225 73.355225 0 0 0 244.76305 386.82083 A 73.355225 73.355225 0 0 0 171.41757 313.47536 z M 171.50969 334.89178 C 174.46769 335.41896 178.89905 339.88444 194.72232 356.19305 C 215.7748 377.89124 218.57975 381.15998 218.57975 383.89622 C 218.57975 389.57257 212.09794 394.99143 207.01949 393.56816 C 205.67427 393.19115 199.7344 387.51248 188.52768 375.85931 C 179.45011 366.42011 171.74049 358.68012 171.37152 358.68012 C 171.00256 358.68012 163.99656 365.65308 155.82734 374.17824 C 138.78695 391.96107 136.85691 393.66027 133.39767 393.66027 C 127.11995 393.66027 122.22827 385.64224 125.10745 380.07351 C 126.60939 377.16853 166.51885 336.24833 168.67719 335.3984 C 169.70327 334.99435 170.52368 334.71605 171.50969 334.89178 z M 169.87467 380.02745 C 170.84629 379.7805 172.32516 379.79197 173.16773 380.05048 C 174.8064 380.55322 211.70324 417.52908 216.00057 422.97543 C 217.96465 425.46467 218.57975 426.8205 218.57975 428.75556 C 218.57975 433.97384 213.4698 438.59974 208.40119 437.96692 C 206.04089 437.67223 204.33937 436.13121 188.78099 420.28111 L 171.71694 402.89466 L 154.95226 420.05082 C 145.72751 429.48439 137.34259 437.56723 136.32228 438.01298 C 133.83595 439.09918 132.85665 439.07144 130.51912 437.82875 C 124.26778 434.50537 122.47818 428.74214 126.14373 423.68931 C 129.74443 418.72587 168.03557 380.49489 169.87467 380.02745 z " />
    </g>
  </g>
</svg>
