<?xml version="1.0" encoding="UTF-8" standalone="no"?>
<!-- Created with Inkscape (http://www.inkscape.org/) -->

<svg
   version="1.1"
   id="svg433"
   width="20"
   height="20"
   viewBox="0 0 20 20"
   sodipodi:docname="sprites.png"
   inkscape:export-filename="public/symbol_smiley_4.svg"
   inkscape:export-xdpi="300"
   inkscape:export-ydpi="300"
   xmlns:inkscape="http://www.inkscape.org/namespaces/inkscape"
   xmlns:sodipodi="http://sodipodi.sourceforge.net/DTD/sodipodi-0.dtd"
   xmlns="http://www.w3.org/2000/svg"
   xmlns:svg="http://www.w3.org/2000/svg">
  <defs
     id="defs437" />
  <sodipodi:namedview
     id="namedview435"
     pagecolor="#ffffff"
     bordercolor="#666666"
     borderopacity="1.0"
     inkscape:showpageshadow="2"
     inkscape:pageopacity="0.0"
     inkscape:pagecheckerboard="0"
     inkscape:deskcolor="#d1d1d1"
     showgrid="false" />
  <g
     inkscape:groupmode="layer"
     inkscape:label="Image"
     id="g439">
    <g
       id="g1465"
       transform="matrix(0.08481373,0,0,0.08481373,-63.840424,-22.722552)">
      <path
         style="fill:#000000"
         d="m 885.25694,159.02524 c -3.0862,-3.92346 -2.5836,-5.94456 2.9274,-11.77162 2.75,-2.90772 5,-5.64981 5,-6.09352 0,-0.44371 -2.2791,-3.21657 -5.0647,-6.16191 -5.4774,-5.79158 -5.8176,-8.06024 -1.7376,-11.58809 3.3404,-2.88835 5.8688,-2.10321 11.071,3.43787 l 4.8707,5.18787 5.0536,-5.18787 c 5.5339,-5.68077 8.1421,-6.38767 11.6185,-3.14891 3.6123,3.36537 2.653,6.65571 -3.9387,13.5095 l -3.8936,4.04847 5.0104,5.19822 c 5.5666,5.77528 6.1888,8.43712 2.9378,12.56999 -3.2522,4.13453 -6.103,3.43304 -11.6148,-2.85806 l -4.8126,-5.49293 -5.1018,5.49293 c -5.9024,6.35499 -9.0084,7.0752 -12.3256,2.85806 z"
         id="path877" />
      <path
         style="fill:#000000"
         d="m 829.95764,159.9101 c -3.2903,-3.747 -3.0325,-5.74981 1.449,-11.2571 2.3527,-2.89129 4.7197,-5.86345 5.2599,-6.6048 0.7254,-0.99537 -0.2554,-2.60443 -3.75,-6.15235 -2.8311,-2.87436 -4.7322,-5.7128 -4.7322,-7.06555 0,-2.68571 4.1736,-7.1702 6.6731,-7.1702 0.9702,0 4.1274,2.33405 7.016,5.18678 l 5.2521,5.18678 4.973,-5.18678 c 5.2576,-5.48355 7.2612,-6.15308 10.8633,-3.63008 3.8342,2.68557 2.9954,7.26836 -2.2775,12.4433 -2.475,2.42903 -4.5,4.83856 -4.5,5.3545 0,0.51595 2.025,3.10298 4.5,5.74895 2.7556,2.94592 4.5,5.74433 4.5,7.21885 0,3.19349 -3.6236,7.6777 -6.2041,7.6777 -2.0708,0 -10.0254,-7.20345 -11.0427,-10 -0.3976,-1.09316 -2.014,0.0596 -5.9593,4.25 -5.8024,6.16285 -9.1447,7.27505 -12.0206,4 z"
         id="path875" />
      <path
         style="fill:#000000"
         d="m 895.65194,202.62624 c -10.3957,-10.85077 -29.0133,-11.32801 -40.7261,-1.04398 -4.8394,4.24898 -9.2987,4.03139 -11.9838,-0.58474 -2.6624,-4.57691 -1.4273,-7.83438 5.6587,-14.92493 7.8643,-7.86938 14.5906,-10.5869 26.1351,-10.55913 12.7913,0.0308 23.1941,5.29096 30.5524,15.44877 3.4201,4.72127 3.6739,8.43934 0.8235,12.06301 -2.8517,3.62543 -6.7465,3.47686 -10.4598,-0.399 z"
         id="path873" />
      <path
         style="fill:#000000"
         d="m 860.01524,245.7074 c -18.604,-3.42015 -38.607,-14.27067 -50.4662,-27.37514 -29.4801,-32.5756 -30.7365,-80.49458 -3.023,-115.3017 7.9947,-10.041049 16.5105,-17.042499 27.8847,-22.926189 11.1486,-5.76701 21.4099,-8.41411 35.4695,-9.15008 25.73,-1.34688 48.3915,6.97428 65.921,24.20581 20.2436,19.899359 29.6992,46.099909 26.3832,73.104459 -4.5221,36.82654 -29.0103,65.19869 -65.0673,75.38756 -8.3436,2.35768 -29.1788,3.51186 -37.1019,2.05528 z m 34.1528,-20.05688 c 12.2975,-3.49509 20.4912,-8.37403 30.13,-17.94098 7.0406,-6.98807 9.357,-10.10178 12.6839,-17.04944 9.4458,-19.72605 9.5771,-43.37014 0.3472,-62.5 -8.8516,-18.34578 -21.5513,-29.694969 -40.5174,-36.208709 -7.3254,-2.51586 -9.4595,-2.79129 -21.6274,-2.79129 -11.3288,0 -14.7062,0.37499 -21,2.33157 -11.5776,3.5992 -19.5463,8.512239 -28.6195,17.645169 -13.7835,13.87424 -20.326,30.13594 -20.3631,50.6133 -0.034,18.7309 6.8587,35.86522 19.474,48.40996 10.7071,10.64734 22.4893,16.67253 38.1684,19.51857 7.4881,1.35924 22.9212,0.35998 31.3239,-2.02815 z"
         id="path871" />
      <path
         style="fill:#000000"
         d="m 660.54234,150.88786 c -5.0548,-4.07718 -6.9927,-14.16595 -3.878,-20.18912 6.4723,-12.51591 22.52,-7.19344 22.52,7.46908 0,4.27841 -3.1119,10.75684 -6.2091,12.9262 -2.9703,2.08047 -9.7371,1.96827 -12.4329,-0.20616 z"
         id="path869" />
      <path
         style="fill:#000000"
         d="m 606.83944,151.52688 c -2.557,-1.48633 -5.6067,-8.605 -5.6331,-13.1489 -0.027,-4.6647 2.0143,-9.74216 5.0564,-12.57626 4.0594,-3.78188 14.2544,-2.12531 16.8578,2.73919 3.8461,7.18647 2.8708,15.51225 -2.4393,20.82227 -2.7349,2.73495 -4.0383,3.29174 -7.6469,3.26651 -2.3925,-0.0167 -5.1802,-0.51299 -6.1949,-1.10281 z"
         id="path867" />
      <path
         style="fill:#000000"
         d="m 605.18434,201.6601 c -1.278,-1.27799 -2,-3.33333 -2,-5.6934 0,-3.15778 0.7859,-4.45459 5.419,-8.9421 12.5219,-12.12844 29.9941,-16.16552 47.2348,-10.914 6.1934,1.88649 16.6352,9.33518 19.3668,13.81535 2.5555,4.1912 2.5467,9.16683 -0.021,11.73415 -3.2592,3.25921 -6.7295,2.52671 -12.179,-2.57073 -7.4551,-6.97333 -12.5474,-8.91998 -23.321,-8.91501 -7.7887,0.004 -9.6729,0.35901 -14,2.64079 -2.75,1.45015 -7.094,4.48351 -9.6534,6.74079 -5.1698,4.5595 -7.8678,5.0829 -10.8466,2.10416 z"
         id="path865" />
      <path
         style="fill:#000000"
         d="m 626.54624,245.6585 c -11.0313,-1.61533 -25.6314,-7.40473 -35.5369,-14.09138 -17.2422,-11.63937 -30.4186,-30.1068 -35.965,-50.40671 -3.1283,-11.45007 -3.1427,-34.45069 -0.029,-46 6.5041,-24.1224 24.3429,-45.542309 46.6688,-56.037259 13.6946,-6.43762 21.2614,-7.97234 39,-7.91013 16.5308,0.058 21.64,1.04276 35.3011,6.80427 11.1347,4.69602 18.4897,9.78466 27.6989,19.16378 11.7696,11.986789 19.7591,26.847439 23.0879,42.944129 2.0449,9.88803 1.506,32.00722 -0.9997,41.03521 -2.3899,8.61075 -9.6039,22.93817 -15.3843,30.55421 -19.2182,25.32099 -52.0249,38.60296 -83.8421,33.94388 z m 31.1381,-19.44348 c 9.1389,-2.38631 23.3102,-9.80565 29.768,-15.58499 16.6397,-14.8914 25.6071,-38.38932 22.8512,-59.87843 -2.21,-17.23294 -8.235,-29.4479 -20.5211,-41.60395 -9.5978,-9.496289 -21.7322,-16.268569 -34.0664,-19.012679 -11.3195,-2.51834 -27.3519,-1.69775 -38.0317,1.94659 -10.1893,3.47697 -22.76,11.810519 -29.9484,19.853939 -16.092,18.00596 -21.672,44.86252 -14.1794,68.24568 7.7807,24.28225 27.2225,41.66223 52.6278,47.04671 7.9146,1.67743 23.0622,1.19036 31.5,-1.01287 z"
         id="path863" />
      <path
         style="fill:#000000"
         d="m 422.40115,151.09971 c -3.3907,-2.37494 -5.5025,-7.34092 -5.5025,-12.9393 0,-9.0473 4.46495,-14.5 11.87336,-14.5 7.02968,0 12.44393,6.21284 12.39043,14.21788 -0.029,4.32227 -3.1706,11.10313 -6.09237,13.14962 -2.95424,2.06923 -9.7621,2.10781 -12.66892,0.0718 z"
         id="path861" />
      <path
         style="fill:#000000"
         d="m 369.94693,151.09471 c -7.75627,-4.20851 -8.10164,-20.58157 -0.54578,-25.87391 3.2869,-2.30223 9.95893,-1.99692 13.26953,0.6072 9.89275,7.78164 5.34121,26.92178 -6.37118,26.79206 -1.98833,-0.022 -4.84698,-0.70843 -6.35257,-1.52535 z"
         id="path859" />
      <path
         style="fill:#000000"
         d="m 366.10744,193.73702 c -3.39393,-3.39392 -3.73644,-6.8504 -1.01236,-10.21614 l 1.91071,-2.36078 35.0978,-0.28695 35.09775,-0.28694 2.4915,2.49149 c 2.5952,2.59515 3.1974,6.39484 1.5126,9.54296 -1.9221,3.59157 -6.32907,4.03944 -39.74723,4.03944 h -32.4277 z"
         id="path857" />
      <path
         style="fill:#000000"
         d="m 387.96909,245.57846 c -6.28097,-0.92068 -19.02564,-5.0429 -25.28473,-8.17826 -11.88983,-5.95596 -25.86523,-18.14335 -33.45511,-29.17486 -5.79171,-8.41796 -11.05974,-20.8613 -13.18875,-31.15247 -1.6832,-8.13627 -1.95786,-12.24255 -1.53256,-22.91277 0.58445,-14.66302 2.1155,-21.31485 7.59557,-33 10.66696,-22.745129 31.88192,-40.717749 56.08085,-47.509859 16.82824,-4.72332 40.21354,-3.45167 56.70363,3.08345 20.07225,7.95475 36.10935,22.63838 45.80095,41.935609 6.4846,12.91147 8.5461,21.11739 9.1672,36.4908 0.6865,16.99083 -1.5018,27.69771 -8.5838,42 -10.583,21.37241 -28.3779,36.95488 -50.73739,44.42935 -14.61895,4.8869 -27.93015,6.13435 -42.56586,3.98901 z m 26.58355,-18.36181 c 15.17569,-2.90359 28.9758,-10.68017 39.909,-22.48939 10.6861,-11.54225 16.4688,-25.49964 17.4289,-42.06716 1.8545,-32.00362 -17.8395,-60.85639 -48.20618,-70.624569 -10.61469,-3.41449 -25.89784,-4.27271 -36.60249,-2.05541 -23.85108,4.94036 -43.11043,22.191839 -51.56548,46.189579 -2.60531,7.39458 -2.81107,9.07161 -2.75931,22.4904 0.0502,13.00456 0.32467,15.25362 2.66165,21.80725 8.79016,24.65035 29.12899,42.17215 54.25182,46.73765 9.48911,1.72443 15.91448,1.72744 24.88209,0.0116 z"
         id="path855" />
      <path
         style="fill:#000000"
         d="m 186.27915,150.0864 c -6.35978,-5.35139 -6.66612,-17.05497 -0.60507,-23.11602 2.75856,-2.75856 4.05448,-3.31028 7.77542,-3.31028 8.29102,0 12.2933,5.60295 11.53093,16.1426 -0.40091,5.54241 -0.80487,6.47736 -4.10568,9.50232 -4.72376,4.32901 -10.04118,4.61368 -14.5956,0.78138 z"
         id="path853" />
      <path
         style="fill:#000000"
         d="m 134.18853,149.81812 c -3.35183,-3.35184 -5.40307,-10.03961 -4.44481,-14.4917 1.7001,-7.89866 5.55635,-11.66632 11.94064,-11.66632 7.31961,0 11.78571,5.49467 11.78571,14.5 0,9.04953 -4.63382,14.5 -12.32745,14.5 -3.18487,0 -4.75295,-0.64084 -6.95409,-2.84198 z"
         id="path851" />
      <path
         style="fill:#000000"
         d="m 154.10317,204.88938 c -12.27192,-3.32016 -25.17347,-13.41081 -27.96631,-21.8732 -1.02971,-3.12007 -0.93016,-3.91058 0.78274,-6.2154 1.20664,-1.62362 3.11948,-2.75714 4.96648,-2.94306 2.49415,-0.25107 3.8351,0.56599 7.90113,4.81427 6.96162,7.27365 15.36067,11.08238 25.88718,11.73911 12.62136,0.78741 19.38269,-1.81988 29.68573,-11.44738 6.40602,-5.98599 10.25955,-6.86831 13.93681,-3.19105 1.6577,1.6577 1.99161,2.89579 1.55079,5.75 -0.88773,5.7478 -13.23382,16.93431 -23.37179,21.17664 -9.93632,4.15795 -22.944,5.01157 -33.37276,2.19007 z"
         id="path849" />
      <path
         style="fill:#000000"
         d="m 150.18436,244.78162 c -16.24675,-3.58363 -29.91139,-10.63566 -41.62773,-21.4832 -19.438805,-17.99735 -29.727335,-43.82885 -28.060095,-70.45069 2.04277,-32.61798 20.043395,-59.572069 49.187825,-73.653749 11.91613,-5.7575 19.46265,-7.55128 34.5,-8.20055 10.19007,-0.43998 14.29975,-0.16621 22.2392,1.48145 32.69459,6.78509 60.36978,34.426459 67.25904,67.176849 2.2072,10.49265 1.96534,29.51619 -0.50633,39.82626 -7.39807,30.85953 -30.23528,54.51598 -61.49191,63.69779 -12.32317,3.62001 -29.3769,4.2799 -41.5,1.60584 z m 34.5,-18.60626 c 20.63635,-5.42888 37.49886,-19.46657 46.50669,-38.71586 8.97717,-19.18378 7.66251,-45.62037 -3.21533,-64.6572 -7.36146,-12.88298 -22.93902,-25.598689 -37.52049,-30.627359 -11.29062,-3.89376 -26.49625,-4.52467 -38.69432,-1.60548 -26.85968,6.42795 -46.92177,27.485189 -52.132325,54.718279 -1.82495,9.53814 -1.82495,16.20658 0,25.74472 5.673895,29.65477 27.420135,51.32062 56.793325,56.58337 6.92187,1.24019 20.75216,0.53529 28.26245,-1.44047 z"
         id="path847" />
      <path
         style="fill:#000000"
         d="m 221.68436,385.52219 c -2.03701,-0.54976 -11.02252,-8.84301 -27.9925,-25.83588 -13.74587,-13.76441 -25.44962,-25.02621 -26.00833,-25.02621 -0.55871,0 -11.13709,10.17128 -23.5075,22.60284 -25.80372,25.93126 -28.75562,28.39716 -33.99383,28.39716 -9.50616,0 -16.907875,-11.67922 -12.548045,-19.79966 2.27434,-4.23608 62.705615,-63.93484 65.973925,-65.17423 6.21499,-2.3568 7.49402,-1.37306 39.4416,30.33563 31.8791,31.64071 36.13468,36.39711 36.13468,40.38717 0,8.27734 -9.80984,16.18865 -17.5,14.11318 z"
         id="path845" />
      <path
         style="fill:#000000"
         d="m 807.44064,412.01546 c -4.1483,-2.04503 -10.0063,-8.51119 -10.886,-12.01614 -1.5483,-6.16893 0.7719,-9.00942 37.0328,-45.33791 36.7942,-36.86274 37.3094,-37.27576 44.3404,-35.54147 1.8208,0.44913 14.6926,12.62961 37.9184,35.88178 30.485,30.51972 35.2553,35.69994 35.8644,38.94677 1.2077,6.43754 -3.3392,14.04506 -10.6122,17.75546 -7.6873,3.92178 -6.7579,4.57323 -37.8814,-26.55034 l -28.5065,-28.50649 -27.5131,27.4011 c -15.1322,15.0706 -28.496,27.89852 -29.6973,28.50649 -3.0082,1.52235 -6.2277,1.34976 -10.0595,-0.53925 z"
         id="path841" />
      <path
         style="fill:#000000"
         d="m 589.75266,342.3797 c -4.1483,2.04503 -10.0063,8.51119 -10.886,12.01614 -1.5483,6.16893 0.7719,9.00942 37.0328,45.33791 36.7942,36.86274 37.3094,37.27576 44.3404,35.54147 1.8208,-0.44913 14.6926,-12.62961 37.9184,-35.88178 30.485,-30.51972 35.2553,-35.69994 35.8644,-38.94677 1.2077,-6.43754 -3.3392,-14.04506 -10.6122,-17.75546 -7.6873,-3.92178 -6.7579,-4.57323 -37.8814,26.55034 l -28.5065,28.50649 -27.5131,-27.4011 c -15.1322,-15.0706 -28.496,-27.89852 -29.6973,-28.50649 -3.0082,-1.52235 -6.2277,-1.34976 -10.0595,0.53925 z"
         id="path841-5" />
      <path
         style="fill:#000000"
         d="m 105.68659,452.0847 c -9.475985,-4.94091 -12.173905,-13.51246 -6.617555,-21.02456 5.458055,-7.3792 63.505395,-64.21813 66.293155,-64.91308 1.4728,-0.36715 3.7228,-0.35311 5,0.0312 2.48395,0.74743 58.4146,55.7245 64.92862,63.82164 2.97722,3.70077 3.89355,5.72524 3.89355,8.60211 0,7.75808 -7.73747,14.62355 -15.42061,13.68273 -3.57781,-0.43812 -6.18023,-2.73786 -29.76407,-26.30237 l -25.84345,-25.82227 -25.42391,25.5 c -13.98315,14.025 -26.68932,26.0422 -28.23593,26.7049 -3.76885,1.61487 -5.26651,1.56722 -8.8098,-0.2803 z"
         id="path839" />
      <path
         style="fill:#000000"
         d="m 462.84438,370.95702 c -2.03701,0.54976 -11.02252,8.84301 -27.9925,25.83588 -13.74587,13.76441 -25.44962,25.02621 -26.00833,25.02621 -0.55871,0 -11.13709,-10.17128 -23.5075,-22.60284 -25.80372,-25.93126 -28.75562,-28.39716 -33.99383,-28.39716 -9.50616,0 -16.90787,11.67922 -12.54804,19.79966 2.27434,4.23608 62.70561,63.93484 65.97392,65.17423 6.21499,2.3568 7.49402,1.37306 39.4416,-30.33563 31.8791,-31.64071 36.13468,-36.39711 36.13468,-40.38717 0,-8.27734 -9.80984,-16.18865 -17.5,-14.11318 z"
         id="path845-1" />
      <path
         style="fill:#000000"
         d="m 346.84661,304.39452 c -9.47598,4.9409 -12.1739,13.51245 -6.61755,21.02456 5.45805,7.3792 63.50539,64.21813 66.29315,64.91307 1.4728,0.36715 3.7228,0.35312 5,-0.0312 2.48395,-0.74743 58.4146,-55.7245 64.92862,-63.82164 2.97722,-3.70077 3.89355,-5.72524 3.89355,-8.60211 0,-7.75808 -7.73747,-14.62355 -15.42061,-13.68273 -3.57781,0.43813 -6.18023,2.73787 -29.76407,26.30237 l -25.84345,25.82227 -25.42391,-25.5 c -13.98315,-14.02499 -26.68932,-26.04219 -28.23593,-26.7049 -3.76885,-1.61487 -5.26651,-1.56722 -8.8098,0.28031 z"
         id="path839-7" />
    </g>
  </g>
</svg>
