<?xml version="1.0" encoding="UTF-8" standalone="no"?>
<!-- Created with Inkscape (http://www.inkscape.org/) -->

<svg
   width="20mm"
   height="20mm"
   viewBox="0 0 20 20"
   version="1.1"
   id="svg1017"
   inkscape:export-filename="symbol_smiley_1.svg"
   inkscape:export-xdpi="300"
   inkscape:export-ydpi="300"
   xmlns:inkscape="http://www.inkscape.org/namespaces/inkscape"
   xmlns:sodipodi="http://sodipodi.sourceforge.net/DTD/sodipodi-0.dtd"
   xmlns="http://www.w3.org/2000/svg"
   xmlns:svg="http://www.w3.org/2000/svg">
  <sodipodi:namedview
     id="namedview1019"
     pagecolor="#ffffff"
     bordercolor="#666666"
     borderopacity="1.0"
     inkscape:showpageshadow="2"
     inkscape:pageopacity="0.0"
     inkscape:pagecheckerboard="0"
     inkscape:deskcolor="#d1d1d1"
     inkscape:document-units="mm"
     showgrid="false" />
  <defs
     id="defs1014" />
  <g
     inkscape:label="Layer 1"
     inkscape:groupmode="layer"
     id="layer1">
    <path
       style="fill:#000000;stroke-width:0.0777241"
       d="M 11.982793,9.409236 C 11.719254,9.2246458 11.555116,8.8386687 11.555116,8.4035397 c 0,-0.703194 0.347034,-1.127 0.922847,-1.127 0.546375,0 0.967194,0.482888 0.963035,1.105073 -0.0023,0.335944 -0.246432,0.862981 -0.473524,1.0220427 -0.229616,0.1608291 -0.758751,0.1638277 -0.984681,0.00558 z"
       id="path861" />
    <path
       style="fill:#000000;stroke-width:0.0777241"
       d="m 7.9058335,9.4088473 c -0.60285,-0.3271028 -0.629693,-1.5996846 -0.04242,-2.0110276 0.255472,-0.178939 0.77405,-0.155209 1.031363,0.04719 0.768906,0.604821 0.415141,2.0924725 -0.495194,2.0823902 -0.154541,-0.00171 -0.376728,-0.055062 -0.493748,-0.1185566 z"
       id="path859" />
    <path
       style="fill:#000000;stroke-width:0.0777241"
       d="m 7.6074125,12.723185 c -0.263791,-0.26379 -0.290412,-0.532442 -0.07869,-0.794041 l 0.148508,-0.18349 2.7279465,-0.0223 2.727943,-0.0223 0.19365,0.193649 c 0.201709,0.201706 0.248515,0.497034 0.117566,0.741719 -0.149394,0.279151 -0.491922,0.313962 -3.08932,0.313962 H 7.8346005 Z"
       id="path857" />
    <path
       style="fill:#000000;stroke-width:0.0777241"
       d="m 9.3065905,16.752517 c -0.488183,-0.07156 -1.478752,-0.391956 -1.965234,-0.635649 -0.924127,-0.462921 -2.010353,-1.410176 -2.600271,-2.267591 -0.450155,-0.654279 -0.859608,-1.621427 -1.025084,-2.421299 -0.130825,-0.632385 -0.152173,-0.951542 -0.119117,-1.7808758 0.04543,-1.1396705 0.164426,-1.6566785 0.590359,-2.5648975 0.829081,-1.767845 2.477996,-3.164752 4.358837,-3.692663 1.307961,-0.367116 3.1255635,-0.268278 4.4072415,0.239658 1.560098,0.618277 2.806569,1.759549 3.55984,3.25941 0.50401,1.003533 0.664238,1.641331 0.712513,2.8362166 0.05336,1.3205977 -0.116727,2.1527807 -0.667169,3.2644147 -0.822555,1.661152 -2.205648,2.872286 -3.94352,3.453233 -1.136246,0.37983 -2.170848,0.476787 -3.3083955,0.310043 z m 2.0661835,-1.427156 c 1.179518,-0.22568 2.25212,-0.830108 3.101893,-1.747969 0.830568,-0.897112 1.280024,-1.981938 1.354647,-3.269634 0.144139,-2.4874543 -1.38656,-4.7300123 -3.746785,-5.4892353 -0.825017,-0.265388 -2.012887,-0.332093 -2.8448975,-0.159755 -1.853805,0.383985 -3.350721,1.724842 -4.007883,3.590046 -0.202495,0.574737 -0.218488,0.7050831 -0.214465,1.7480472 0.0039,1.0107681 0.02523,1.1855751 0.206875,1.6949501 0.683207,1.915927 2.264026,3.277794 4.216676,3.632644 0.7375335,0.13403 1.2369395,0.134264 1.9339395,9.11e-4 z"
       id="path855" />
  </g>
</svg>
