<?xml version="1.0" encoding="UTF-8" standalone="no"?>
<!-- Created with Inkscape (http://www.inkscape.org/) -->

<svg
   width="20mm"
   height="20mm"
   viewBox="0 0 20 20"
   version="1.1"
   id="svg1017"
   xmlns:inkscape="http://www.inkscape.org/namespaces/inkscape"
   xmlns:sodipodi="http://sodipodi.sourceforge.net/DTD/sodipodi-0.dtd"
   xmlns="http://www.w3.org/2000/svg"
   xmlns:svg="http://www.w3.org/2000/svg">
  <sodipodi:namedview
     id="namedview1019"
     pagecolor="#ffffff"
     bordercolor="#666666"
     borderopacity="1.0"
     inkscape:showpageshadow="2"
     inkscape:pageopacity="0.0"
     inkscape:pagecheckerboard="0"
     inkscape:deskcolor="#d1d1d1"
     inkscape:document-units="mm"
     showgrid="false" />
  <defs
     id="defs1014" />
  <g
     inkscape:label="Layer 1"
     inkscape:groupmode="layer"
     id="layer1">
    <g
       id="g1174"
       transform="translate(-0.24979429,0.11165915)">
      <path
         style="fill:#000000;stroke-width:0.077088"
         d="m 11.677537,9.342883 c -0.490263,-0.412528 -0.513878,-1.3147342 -0.04664,-1.7819688 0.212652,-0.212652 0.312552,-0.255183 0.599392,-0.255183 0.639138,0 0.947666,0.4319204 0.888897,1.2444016 -0.03091,0.4272535 -0.06205,0.4993269 -0.316499,0.7325152 -0.364146,0.333715 -0.774055,0.3556597 -1.125147,0.060235 z"
         id="path853" />
      <path
         style="fill:#000000;stroke-width:0.077088"
         d="M 7.6619732,9.322202 C 7.4035873,9.0638152 7.2454611,8.5482681 7.3193314,8.2050651 7.450389,7.5961727 7.7476597,7.3057312 8.2398122,7.3057312 c 0.5642546,0 0.9085374,0.4235733 0.9085374,1.1177766 0,0.6976108 -0.357212,1.117777 -0.9502992,1.117777 -0.2455153,0 -0.3663956,-0.049401 -0.5360772,-0.2190828 z"
         id="path851" />
      <path
         style="fill:#000000;stroke-width:0.077088"
         d="M 9.1971541,13.567538 C 8.2511355,13.311593 7.2565802,12.533725 7.0412855,11.881376 c -0.079378,-0.24052 -0.071704,-0.301459 0.06034,-0.479133 0.093018,-0.125162 0.2404748,-0.212543 0.3828563,-0.226875 0.1922693,-0.01936 0.2956405,0.04363 0.6090829,0.371123 0.5366576,0.560711 1.1841241,0.854319 1.9955923,0.904945 0.972956,0.0607 1.494173,-0.140291 2.288415,-0.882456 0.493827,-0.461449 0.790888,-0.529465 1.074361,-0.245992 0.127789,0.127789 0.15353,0.223231 0.119548,0.443256 -0.06843,0.443087 -1.02017,1.305433 -1.801686,1.632466 -0.765972,0.320528 -1.768708,0.386332 -2.5726409,0.168828 z"
         id="path849" />
      <path
         style="fill:#000000;stroke-width:0.077088"
         d="M 8.8950606,16.642752 C 7.6426303,16.366499 6.5892498,15.822871 5.6860601,14.986655 4.1875605,13.599274 3.3944376,11.607974 3.5229619,9.5557486 3.6804351,7.0412923 5.0680681,4.963454 7.3147556,3.8779247 8.2333468,3.4340904 8.8150935,3.2958112 9.9742935,3.2457602 10.759826,3.2118431 11.076633,3.2329464 11.68867,3.3599623 c 2.520361,0.5230495 4.653789,2.6538689 5.184868,5.1785326 0.170149,0.8088578 0.151505,2.2753461 -0.03903,3.0701291 -0.570304,2.3789 -2.330781,4.20253 -4.740293,4.910339 -0.949969,0.279058 -2.2646073,0.329929 -3.1991544,0.123789 z m 2.6595374,-1.434319 c 1.590816,-0.418502 2.890714,-1.50064 3.585109,-2.98453 C 15.83174,10.745062 15.730398,8.7071171 14.891845,7.2396049 14.324364,6.2464813 13.12352,5.266252 11.999463,4.8786017 11.129091,4.5784393 9.9569193,4.5298038 9.0165938,4.7548384 6.9460333,5.2503565 5.3994861,6.8736178 4.9978145,8.9729638 c -0.140682,0.7352767 -0.140682,1.2493342 0,1.9846102 0.4373895,2.286028 2.1137646,3.956206 4.3780868,4.361902 0.5335933,0.0956 1.5997427,0.04126 2.1786967,-0.111043 z"
         id="path847" />
    </g>
  </g>
</svg>
